<?xml version="1.0" standalone="no"?>
<!DOCTYPE svg PUBLIC "-//W3C//DTD SVG 20010904//EN"
 "http://www.w3.org/TR/2001/REC-SVG-20010904/DTD/svg10.dtd">
<svg version="1.0" xmlns="http://www.w3.org/2000/svg"
 width="200.000000pt" height="200.000000pt" viewBox="0 0 200.000000 200.000000"
 preserveAspectRatio="xMidYMid meet">

<g transform="translate(0.000000,200.000000) scale(0.100000,-0.100000)"
fill="#000000" stroke="none">
<path d="M479 1577 c-18 -12 -44 -38 -56 -56 l-23 -34 0 -487 0 -487 23 -34
c12 -18 38 -44 56 -56 l34 -23 487 0 487 0 34 23 c18 12 44 38 56 56 l23 34 0
487 0 487 -23 34 c-12 18 -38 44 -56 56 l-34 23 -487 0 -487 0 -34 -23z m877
-142 c3 -17 4 -51 2 -75 l-3 -45 -67 -3 c-64 -3 -67 -2 -80 25 -19 40 -43 40
-83 0 -33 -33 -35 -39 -35 -103 0 -43 5 -73 14 -83 11 -13 14 -80 18 -321 2
-168 2 -288 0 -268 l-3 38 -84 0 c-57 0 -85 -4 -88 -12 -3 -7 -6 111 -6 263
-1 265 0 277 20 303 16 21 19 34 14 70 -13 86 -74 146 -148 146 -48 0 -82 -18
-132 -69 -21 -23 -43 -41 -47 -41 -13 0 -9 68 5 103 8 18 33 49 57 70 l42 39
299 -4 299 -3 6 -30z"/>
</g>
</svg>
